<svg xmlns="http://www.w3.org/2000/svg" viewBox="0 0 240 240" width="240" height="240">
  <defs>
    <!-- 旧纸张纹理 -->
    <filter id="paperTexture">
      <feTurbulence type="fractalNoise" baseFrequency="0.04" numOctaves="5" seed="3" result="noise"/>
      <feColorMatrix type="saturate" values="0" in="noise" result="grayNoise"/>
      <feBlend mode="multiply" in="SourceGraphic" in2="grayNoise" result="blended"/>
      <feComponentTransfer in="blended">
        <feFuncA type="linear" slope="1"/>
      </feComponentTransfer>
    </filter>

    <!-- 老旧化 -->
    <filter id="vintage">
      <feTurbulence type="fractalNoise" baseFrequency="0.08" numOctaves="3" seed="7" result="noise"/>
      <feColorMatrix type="matrix" values="0 0 0 0 0.15  0 0 0 0 0.1  0 0 0 0 0.05  0 0 0 0.08 0" in="noise" result="stain"/>
      <feBlend mode="multiply" in="SourceGraphic" in2="stain"/>
    </filter>

    <!-- 手绘线条 -->
    <filter id="handDrawn">
      <feTurbulence type="turbulence" baseFrequency="0.015" numOctaves="2" seed="12" result="wobble"/>
      <feDisplacementMap in="SourceGraphic" in2="wobble" scale="1.5" xChannelSelector="R" yChannelSelector="G"/>
    </filter>

    <!-- 唱片沟槽纹理 -->
    <pattern id="grooves" width="6" height="6" patternUnits="userSpaceOnUse">
      <circle cx="3" cy="3" r="2.7" fill="none" stroke="#6B4C1E" stroke-width="0.3" opacity="0.15"/>
      <circle cx="3" cy="3" r="2.2" fill="none" stroke="#5A3E16" stroke-width="0.2" opacity="0.1"/>
      <circle cx="3" cy="3" r="1.6" fill="none" stroke="#6B4C1E" stroke-width="0.25" opacity="0.12"/>
    </pattern>

    <!-- 渐变 -->
    <radialGradient id="recordGrad" cx="50%" cy="50%">
      <stop offset="0%" stop-color="#3D2B0F"/>
      <stop offset="25%" stop-color="#5A3E16"/>
      <stop offset="50%" stop-color="#7A5320"/>
      <stop offset="75%" stop-color="#6B4C1E"/>
      <stop offset="90%" stop-color="#4A3512"/>
      <stop offset="100%" stop-color="#8B6914"/>
    </radialGradient>

    <radialGradient id="labelGrad" cx="40%" cy="35%">
      <stop offset="0%" stop-color="#F5E6CC"/>
      <stop offset="60%" stop-color="#E8D5B5"/>
      <stop offset="100%" stop-color="#D4B896"/>
    </radialGradient>

    <linearGradient id="paperGrad" x1="0%" y1="0%" x2="100%" y2="100%">
      <stop offset="0%" stop-color="#FDF5E6"/>
      <stop offset="30%" stop-color="#F5E6CC"/>
      <stop offset="70%" stop-color="#EEDCB8"/>
      <stop offset="100%" stop-color="#E8D5B5"/>
    </linearGradient>

    <linearGradient id="paperShadow" x1="0%" y1="0%" x2="100%" y2="0%">
      <stop offset="0%" stop-color="#D4B896" stop-opacity="0"/>
      <stop offset="8%" stop-color="#C4A35A" stop-opacity="0.3"/>
      <stop offset="15%" stop-color="#D4B896" stop-opacity="0"/>
    </linearGradient>

    <linearGradient id="pageEdge" x1="0%" y1="0%" x2="100%" y2="0%">
      <stop offset="0%" stop-color="#E8D5B5"/>
      <stop offset="100%" stop-color="#D4B896"/>
    </linearGradient>
  </defs>

  <!-- ===== 背景：旧纸 ===== -->
  <rect width="240" height="240" rx="24" fill="#FDF5E6" filter="url(#paperTexture)"/>

  <!-- 纸张污渍效果 -->
  <rect width="240" height="240" rx="24" fill="none" filter="url(#vintage)"/>

  <!-- 手绘圆角边框 -->
  <rect x="12" y="12" width="216" height="216" rx="18" fill="none" stroke="#8B6914" stroke-width="1.5" opacity="0.35" filter="url(#handDrawn)"/>
  <rect x="16" y="16" width="208" height="208" rx="14" fill="none" stroke="#A0782E" stroke-width="0.8" opacity="0.2" filter="url(#handDrawn)"/>

  <!-- ===== 左侧：唱片 ===== -->
  <g transform="translate(70, 110) rotate(-12)">
    <!-- 唱片主体 -->
    <circle cx="0" cy="0" r="60" fill="url(#recordGrad)" filter="url(#vintage)"/>

    <!-- 唱片沟槽 (手绘感圆环) -->
    <circle cx="0" cy="0" r="55" fill="none" stroke="#3D2B0F" stroke-width="0.6" opacity="0.5" filter="url(#handDrawn)"/>
    <circle cx="0" cy="0" r="51" fill="none" stroke="#3D2B0F" stroke-width="0.4" opacity="0.45" filter="url(#handDrawn)"/>
    <circle cx="0" cy="0" r="47" fill="none" stroke="#2A1A08" stroke-width="0.5" opacity="0.4" filter="url(#handDrawn)"/>
    <circle cx="0" cy="0" r="43" fill="none" stroke="#3D2B0F" stroke-width="0.35" opacity="0.4" filter="url(#handDrawn)"/>
    <circle cx="0" cy="0" r="39" fill="none" stroke="#2A1A08" stroke-width="0.45" opacity="0.35" filter="url(#handDrawn)"/>
    <circle cx="0" cy="0" r="35" fill="none" stroke="#3D2B0F" stroke-width="0.3" opacity="0.35" filter="url(#handDrawn)"/>
    <circle cx="0" cy="0" r="31" fill="none" stroke="#2A1A08" stroke-width="0.4" opacity="0.3" filter="url(#handDrawn)"/>
    <circle cx="0" cy="0" r="27" fill="none" stroke="#3D2B0F" stroke-width="0.25" opacity="0.3" filter="url(#handDrawn)"/>

    <!-- 唱片高光 -->
    <ellipse cx="-15" cy="-20" rx="25" ry="15" fill="white" opacity="0.04" transform="rotate(-20)"/>

    <!-- 中央标签 -->
    <circle cx="0" cy="0" r="22" fill="url(#labelGrad)" stroke="#8B6914" stroke-width="0.8" filter="url(#handDrawn)"/>

    <!-- 标签上的手绘笔触 -->
    <line x1="-12" y1="-8" x2="12" y2="-8" stroke="#8B6914" stroke-width="0.5" opacity="0.4" filter="url(#handDrawn)"/>
    <line x1="-10" y1="-4" x2="10" y2="-4" stroke="#8B6914" stroke-width="0.4" opacity="0.35" filter="url(#handDrawn)"/>
    <line x1="-8" y1="0" x2="8" y2="0" stroke="#8B6914" stroke-width="0.35" opacity="0.3" filter="url(#handDrawn)"/>

    <!-- 标签上的"拾光"字样 -->
    <text x="0" y="6" text-anchor="middle" font-family="serif" font-size="10" fill="#5A3E16" font-weight="bold" filter="url(#handDrawn)">拾光</text>

    <!-- 中心孔 -->
    <circle cx="0" cy="0" r="3.5" fill="#2A1A08"/>
    <circle cx="0" cy="0" r="2.5" fill="#1A0E04"/>
  </g>

  <!-- ===== 右侧：笔记本 ===== -->
  <g transform="translate(158, 125)">
    <!-- 笔记本阴影 -->
    <rect x="-38" y="-50" width="76" height="95" rx="3" fill="#8B6914" opacity="0.12" transform="translate(2,2)"/>

    <!-- 笔记本主体 (合起来的本子，有厚度感) -->
    <!-- 左封面 -->
    <path d="M -38,-50 L -38,45 Q -38,52 -32,52 L 0,52 L 0,-50 Z" fill="#D4B896" stroke="#8B6914" stroke-width="0.7" filter="url(#paperTexture)"/>

    <!-- 右封面 -->
    <path d="M 0,-50 L 0,52 L 32,52 Q 38,52 38,45 L 38,-50 Z" fill="#E8D5B5" stroke="#8B6914" stroke-width="0.7" filter="url(#paperTexture)"/>

    <!-- 书脊 -->
    <line x1="0" y1="-50" x2="0" y2="52" stroke="#8B6914" stroke-width="1.2" filter="url(#handDrawn)"/>

    <!-- 封面折痕/缝线 -->
    <line x1="-5" y1="-50" x2="-5" y2="52" stroke="#A0782E" stroke-width="0.3" opacity="0.4" filter="url(#handDrawn)"/>
    <line x1="5" y1="-50" x2="5" y2="52" stroke="#A0782E" stroke-width="0.3" opacity="0.4" filter="url(#handDrawn)"/>

    <!-- 笔记本内页纸 (中间微翻) -->
    <!-- 左侧内页 -->
    <path d="M -34,-45 L -34,42 Q -34,47 -30,47 L -4,47 L -4,-45 Z" fill="#FDF5E6" stroke="#C4A35A" stroke-width="0.4"/>

    <!-- 右侧内页 -->
    <path d="M 4,-45 L 4,47 L 30,47 Q 34,47 34,42 L 34,-45 Z" fill="#F5E6CC" stroke="#C4A35A" stroke-width="0.4"/>

    <!-- 纸上的横线 (手写笔记本线条) -->
    <g opacity="0.25" stroke="#8B6914" stroke-width="0.35" filter="url(#handDrawn)">
      <line x1="-30" y1="-35" x2="-8" y2="-35"/>
      <line x1="8" y1="-35" x2="30" y2="-35"/>

      <line x1="-30" y1="-27" x2="-8" y2="-27"/>
      <line x1="8" y1="-27" x2="30" y2="-27"/>

      <line x1="-30" y1="-19" x2="-8" y2="-19"/>
      <line x1="8" y1="-19" x2="30" y2="-19"/>

      <line x1="-30" y1="-11" x2="-8" y2="-11"/>
      <line x1="8" y1="-11" x2="30" y2="-11"/>

      <line x1="-30" y1="-3" x2="-8" y2="-3"/>
      <line x1="8" y1="-3" x2="30" y2="-3"/>

      <line x1="-30" y1="5" x2="-8" y2="5"/>
      <line x1="8" y1="5" x2="30" y2="5"/>

      <line x1="-30" y1="13" x2="-8" y2="13"/>
      <line x1="8" y1="13" x2="30" y2="13"/>

      <line x1="-30" y1="21" x2="-8" y2="21"/>
      <line x1="8" y1="21" x2="30" y2="21"/>

      <line x1="-30" y1="29" x2="-8" y2="29"/>
      <line x1="8" y1="29" x2="30" y2="29"/>

      <line x1="-30" y1="37" x2="-8" y2="37"/>
      <line x1="8" y1="37" x2="30" y2="37"/>
    </g>

    <!-- 手绘涂鸦笔记 (在纸上) -->
    <g opacity="0.3" stroke="#5A3E16" stroke-width="0.6" fill="none" filter="url(#handDrawn)">
      <!-- 左侧小涂鸦: 一个小星星或音符 -->
      <path d="M -22,-32 L -20,-28 L -24,-28 Z"/>
      <path d="M -22,-35 L -22,-26"/>
      <path d="M -28,-32 L -24,-28"/>
      <path d="M -16,-32 L -20,-28"/>

      <!-- 右侧小涂鸦 -->
      <path d="M 14,-22 Q 18,-26 22,-22" stroke-dasharray="1.5,1"/>
    </g>

    <!-- 书脊装饰线 -->
    <line x1="0" y1="-46" x2="0" y2="48" stroke="#5A3E16" stroke-width="0.2" opacity="0.3"/>
  </g>

  <!-- ===== 左下角手绘咖啡渍 ===== -->
  <g opacity="0.08">
    <circle cx="35" cy="200" r="18" fill="#5A3E16"/>
    <circle cx="30" cy="205" r="12" fill="#4A3512"/>
    <circle cx="42" cy="195" r="8" fill="#6B4C1E"/>
  </g>

  <!-- ===== 右上角手绘墨渍 ===== -->
  <g opacity="0.06">
    <circle cx="195" cy="30" r="10" fill="#3D2B0F"/>
    <circle cx="200" cy="35" r="7" fill="#2A1A08"/>
  </g>

  <!-- ===== 底部"拾光"文字 ===== -->
  <g transform="translate(120, 210)">
    <!-- 文字阴影 (手绘感) -->
    <text x="0" y="0" text-anchor="middle" font-family="'KaiTi', 'STKaiti', 'Noto Serif SC', serif" font-size="22" fill="#8B6914" opacity="0.2" transform="translate(0.5,0.5)" filter="url(#handDrawn)">拾 光</text>
    <!-- 主体 -->
    <text x="0" y="0" text-anchor="middle" font-family="'KaiTi', 'STKaiti', 'Noto Serif SC', serif" font-size="22" fill="#5A3E16" font-weight="bold" filter="url(#handDrawn)">拾 光</text>
  </g>

  <!-- ===== 装饰元素 ===== -->
  <!-- 手绘小花/星星 in 角落 -->
  <g opacity="0.2" stroke="#8B6914" stroke-width="0.6" fill="none" filter="url(#handDrawn)" transform="translate(30, 50)">
    <circle cx="0" cy="0" r="2" fill="#8B6914"/>
    <path d="M 0,-5 Q 2,-3 0,0"/>
    <path d="M 0,-5 Q -2,-3 0,0"/>
    <path d="M 0,5 Q 2,3 0,0"/>
    <path d="M 0,5 Q -2,3 0,0"/>
    <path d="M 5,0 Q 3,2 0,0"/>
    <path d="M 5,0 Q 3,-2 0,0"/>
    <path d="M -5,0 Q -3,2 0,0"/>
    <path d="M -5,0 Q -3,-2 0,0"/>
  </g>
</svg>
